<?xml version="1.0" encoding="UTF-8"?>
<svg width="182px" height="148px" viewBox="0 0 182 148" xmlns="http://www.w3.org/2000/svg" xmlns:xlink="http://www.w3.org/1999/xlink" version="1.1">
 <!-- Generated by Pixelmator Pro 2.0.5 -->
 <g id="group">
  <g id="图层_1">
   <path id="Trazado" d="M30.59 72.16 C30.59 73.371 29.484 74.102 28.02 74.789 25.196 76.044 22.133 76.671 19.043 76.625 8.758 76.625 0.363 69.375 0.363 58.203 0.363 48.125 8.965 39.883 19.043 39.883 22.055 39.823 25.044 40.417 27.805 41.625 29.328 42.25 30.324 43.086 30.324 44.242 30.344 44.764 30.145 45.27 29.776 45.638 29.407 46.007 28.9 46.204 28.379 46.184 27.543 46.184 26.598 45.234 24.504 44.504 22.726 43.914 20.861 43.63 18.988 43.664 11.059 43.799 4.705 50.272 4.719 58.203 4.592 62.059 6.042 65.8 8.735 68.563 11.428 71.326 15.13 72.871 18.988 72.844 20.879 72.864 22.76 72.563 24.551 71.953 26.863 71.164 27.805 70.219 28.645 70.219 29.161 70.216 29.657 70.419 30.022 70.784 30.387 71.149 30.592 71.644 30.59 72.16 M73.363 58.313 C73.467 65.893 68.981 72.784 62.007 75.757 55.033 78.73 46.955 77.194 41.558 71.871 36.161 66.547 34.515 58.49 37.392 51.477 40.269 44.463 47.099 39.883 54.68 39.883 59.616 39.801 64.377 41.708 67.892 45.174 71.406 48.641 73.378 53.376 73.363 58.313 M68.953 58.313 C68.857 50.471 62.442 44.181 54.6 44.241 46.758 44.3 40.438 50.685 40.46 58.527 40.482 66.369 46.837 72.719 54.68 72.734 58.486 72.717 62.129 71.187 64.806 68.482 67.483 65.777 68.975 62.118 68.953 58.313 M109.098 66.547 C109.098 73.215 103.328 76.094 97.293 76.094 L84.484 76.094 C83.935 76.104 83.404 75.895 83.01 75.512 82.616 75.129 82.392 74.604 82.387 74.055 L82.387 42.406 C82.393 41.857 82.618 41.333 83.011 40.949 83.405 40.566 83.935 40.355 84.484 40.363 L95.293 40.363 C100.809 40.363 106.164 43.195 106.164 49.438 106.164 53.477 104.27 56.055 101.496 57.316 L101.496 57.414 C106.527 58.41 109.098 61.875 109.098 66.547 M86.582 56.211 L95.355 56.211 C98.809 56.211 101.965 54.531 101.965 49.914 101.965 45.766 98.551 43.774 94.668 43.774 L86.582 43.774 Z M104.848 66.078 C104.848 62.563 102.437 59.621 97.242 59.621 L86.582 59.621 86.582 72.629 96.453 72.629 C100.91 72.629 104.797 71.008 104.848 66.078 M179.816 72.375 L162.707 72.375 162.707 41.938 C162.682 40.795 161.748 39.882 160.605 39.883 160.054 39.875 159.522 40.087 159.128 40.473 158.734 40.859 158.511 41.386 158.508 41.938 L158.508 74.055 C158.512 74.604 158.737 75.129 159.131 75.512 159.525 75.895 160.056 76.105 160.605 76.094 L179.816 76.094 C180.815 76.055 181.606 75.234 181.606 74.234 181.606 73.235 180.815 72.413 179.816 72.375" fill="#732b75" fill-opacity="1" stroke="none"/>
   <path id="Trazado-1" d="M132.75 39.895 C122.654 40.064 114.588 48.351 114.691 58.448 114.795 68.544 123.028 76.665 133.126 76.627 143.223 76.59 151.397 68.41 151.426 58.312 151.415 53.386 149.436 48.668 145.928 45.209 142.421 41.75 137.676 39.837 132.75 39.895 M132.75 72.734 C126.883 72.809 121.552 69.331 119.258 63.93 116.964 58.529 118.161 52.277 122.289 48.107 126.417 43.936 132.656 42.674 138.08 44.912 143.504 47.15 147.038 52.445 147.023 58.313 147.081 62.129 145.6 65.808 142.915 68.521 140.23 71.234 136.567 72.752 132.75 72.734" fill="#732b75" fill-opacity="1" stroke="none"/>
  </g>
 </g>
</svg>
